<svg width="126" height="42" viewBox="0 0 126 42" fill="none" xmlns="http://www.w3.org/2000/svg">
<path fill-rule="evenodd" clip-rule="evenodd" d="M78.497 17.143C78.859 17.143 79 17.319 79 17.593C79 21.283 79 25.64 78.968 29.329C78.965 29.502 78.974 29.753 78.64 29.753H77.656C77.426 29.753 77.334 29.667 77.224 29.433C77.178 29.334 76.778 28.341 76.746 28.263C75.612 29.602 73.304 30.333 71.308 29.851C69.445 29.401 68.262 28.265 67.969 26.305C67.867 25.619 67.875 24.904 67.869 24.21C67.849 22.158 67.862 19.789 67.862 17.737C67.862 17.45 67.912 17.144 68.392 17.144H70.16C70.567 17.144 70.659 17.391 70.659 17.645C70.659 17.745 70.704 25.058 70.725 25.389C70.851 27.532 73.002 27.769 74.377 27.152C75.47 26.661 76.105 25.591 76.146 24.325C76.166 22.613 76.196 18.047 76.196 17.623C76.196 17.623 76.139 17.143 76.64 17.143H78.497ZM64.975 25.84C65.031 25.884 65.82 26.642 66.016 26.844C66.23 27.08 66.155 27.302 65.93 27.591C65.197 28.534 63.562 30.027 61.163 29.999C60.386 29.989 59.573 29.896 58.643 29.499C55.978 28.363 54.763 25.575 55.038 22.764C55.34 19.692 57.433 17.544 60.313 17.192C62.124 16.97 64.201 17.47 65.545 19.037C65.875 19.42 66.143 19.681 65.724 20.063C65.372 20.384 64.808 20.868 64.633 20.994C64.332 21.21 64.145 21.05 63.973 20.894C63.7377 20.6903 63.4928 20.4981 63.239 20.318C62.102 19.551 60.618 19.637 59.782 19.972C58.436 20.512 57.507 21.882 57.54 23.629C57.577 25.579 58.662 27.139 60.571 27.436C62.856 27.792 64.271 25.97 64.318 25.912C64.48 25.714 64.71 25.628 64.975 25.84ZM88.162 17.404C88.539 17.569 88.422 17.894 88.369 17.97C88.209 18.233 87.367 19.443 87.329 19.5C87.149 19.774 86.939 19.71 86.592 19.686C84.98 19.58 83.566 20.683 83.566 23.304C83.566 23.771 83.551 28.638 83.55 29.474C83.55 29.752 83.487 29.998 83.077 29.998L81.228 30C80.884 30 80.722 29.885 80.722 29.516C80.719 26.833 80.722 23.809 80.722 21.126C80.722 20.187 80.716 18.841 80.716 17.903C80.716 17.779 80.673 17.427 81.079 17.427L82.005 17.428C82.301 17.428 82.398 17.53 82.484 17.727C82.517 17.804 82.8 18.639 82.941 19.067C83.637 18.098 84.566 17.379 86.061 17.184C86.661 17.106 87.506 17.117 88.162 17.404ZM91.199 22.176H97.66C97.648 20.77 96.404 19.536 94.762 19.451C92.934 19.355 91.402 20.534 91.199 22.176ZM100.274 21.39C100.421 21.98 100.434 22.61 100.426 23.223L100.429 23.229V23.925C100.429 24.235 100.166 24.485 99.843 24.485H91.201C91.199 25.239 91.545 25.986 92.023 26.49C93.341 27.879 95.797 27.735 97.383 26.855C97.578 26.747 97.932 26.537 98.065 26.461C98.42 26.259 98.63 26.363 98.781 26.595C98.879 26.745 99.426 27.688 99.498 27.798C99.654 28.037 99.701 28.3 99.464 28.483C99.374 28.553 97.88 29.749 95.665 29.96C94.578 30.064 93.477 29.948 92.735 29.747C90.274 29.078 88.98 27.542 88.531 25.08C88.293 23.341 88.292 20.319 90.533 18.468C93.479 16.072 99.145 16.852 100.274 21.39ZM111.876 12.049C112.338 12.094 112.429 12.336 112.429 12.591L112.398 14.029C112.4 14.322 112.208 14.474 111.95 14.474C111.816 14.474 111.691 14.456 111.55 14.447C109.59 14.322 109.726 15.647 109.726 16.053V17.213H111.843C112.104 17.213 112.323 17.303 112.323 17.631V19.119C112.323 19.466 112.155 19.577 111.903 19.577H109.726V29.393C109.726 29.705 109.655 29.999 109.193 29.999H107.362C107.1 29.999 106.838 29.948 106.838 29.48L106.836 23.667V19.577L105.172 19.58C104.879 19.58 104.714 19.479 104.714 19.158V17.671C104.714 17.397 104.866 17.212 105.268 17.212H106.836V16.327C106.763 13.444 108.021 11.674 111.876 12.049ZM119.286 12.599C119.286 12.13 119.602 11.999 119.923 11.999C120.293 12.001 121.236 11.999 121.606 11.999C122.119 11.999 122.188 12.41 122.188 12.637V17.171H124.771C125.085 17.171 125.226 17.371 125.226 17.631V19.086C125.226 19.416 125.006 19.539 124.7 19.539H122.188V25.488C122.188 26.035 122.191 27.393 123.628 27.409L124.356 27.419C124.723 27.425 124.872 27.746 124.921 27.941L125.281 29.571C125.319 29.841 125.113 29.965 124.895 29.979H124.892C123.966 30.016 123.214 30.006 122.59 29.91C120.427 29.577 119.3 28.305 119.3 25.865L119.286 12.598V12.599ZM116.193 17.142C116.481 17.142 116.714 17.323 116.714 17.707V29.434C116.714 29.746 116.481 29.999 116.193 29.999H114.663C114.375 29.999 114.143 29.746 114.143 29.434V17.674C114.143 17.314 114.375 17.142 114.663 17.142H116.193ZM114.893 15.428C114.479 15.428 114.143 15.041 114.143 14.563V12.863C114.143 12.386 114.479 11.999 114.893 11.999H115.965C116.379 11.999 116.715 12.386 116.715 12.863V14.563C116.715 15.041 116.379 15.428 115.965 15.428H114.893ZM102.893 29.999C102.479 29.999 102.143 29.612 102.143 29.135V27.435C102.143 26.957 102.479 26.57 102.893 26.57H103.965C104.379 26.57 104.715 26.957 104.715 27.435V29.135C104.715 29.612 104.379 29.999 103.965 29.999H102.893ZM36.04 19.067C36.684 19.067 37.208 19.594 37.208 20.241V21.907C37.208 22.554 36.684 23.08 36.04 23.08H1.852C1.54195 23.0787 1.24508 22.9545 1.0265 22.7346C0.807919 22.5147 0.685466 22.2171 0.685999 21.907V20.24C0.685999 19.593 1.209 19.066 1.852 19.066L36.04 19.067ZM21.276 25.76L30.276 36.293C30.479 36.531 30.576 36.834 30.554 37.147C30.5427 37.3003 30.5012 37.4498 30.4321 37.5871C30.3629 37.7244 30.2674 37.8467 30.151 37.947L28.895 39.033C28.7788 39.133 28.644 39.2092 28.4983 39.257C28.3526 39.3049 28.199 39.3235 28.0461 39.3119C27.8932 39.3003 27.7441 39.2587 27.6073 39.1894C27.4705 39.12 27.3488 39.0244 27.249 38.908L19.597 29.953C19.5125 29.8539 19.4075 29.7742 19.2892 29.7196C19.171 29.665 19.0423 29.6368 18.912 29.6368C18.7817 29.6368 18.653 29.665 18.5348 29.7196C18.4165 29.7742 18.3115 29.8539 18.227 29.953L10.581 38.865C10.4815 38.9817 10.36 39.0776 10.2233 39.1471C10.0867 39.2167 9.93759 39.2585 9.78471 39.2702C9.63182 39.2819 9.47813 39.2633 9.33247 39.2154C9.18682 39.1674 9.05208 39.0912 8.936 38.991L7.68 37.905C7.56333 37.8047 7.46766 37.6822 7.3985 37.5448C7.32933 37.4073 7.28804 37.2575 7.277 37.104C7.26494 36.9505 7.28329 36.7962 7.33099 36.6498C7.3787 36.5034 7.45482 36.3679 7.555 36.251L16.548 25.761C16.77 25.501 17.093 25.351 17.433 25.351H20.391C20.731 25.351 21.054 25.5 21.276 25.76ZM19.529 34.826C20.011 34.826 20.402 35.219 20.402 35.704V40.7C20.4024 40.815 20.3801 40.929 20.3365 41.0355C20.2928 41.1419 20.2286 41.2387 20.1475 41.3203C20.0665 41.4019 19.9701 41.4668 19.864 41.5112C19.7579 41.5556 19.644 41.5786 19.529 41.579H18.295C18.18 41.5786 18.0661 41.5556 17.96 41.5112C17.8539 41.4668 17.7575 41.4019 17.6764 41.3203C17.5954 41.2387 17.5312 41.1419 17.4875 41.0355C17.4439 40.929 17.4216 40.815 17.422 40.7V35.704C17.422 35.219 17.812 34.826 18.295 34.826H19.529ZM27.472 15.741L26.787 14.716C26.6573 14.5225 26.6096 14.2855 26.6542 14.0569C26.6988 13.8282 26.8321 13.6266 27.025 13.496L32.556 9.77101C32.6512 9.70671 32.7582 9.66189 32.8708 9.63915C32.9833 9.61641 33.0993 9.61618 33.212 9.6385C33.3247 9.66081 33.4318 9.70522 33.5273 9.76915C33.6227 9.83309 33.7045 9.91529 33.768 10.011L34.452 11.037C34.5818 11.2306 34.6296 11.4677 34.5848 11.6964C34.54 11.9252 34.4063 12.1268 34.213 12.257L28.683 15.981C28.5879 16.0451 28.481 16.0898 28.3685 16.1125C28.256 16.1351 28.1401 16.1353 28.0276 16.113C27.915 16.0907 27.808 16.0464 27.7126 15.9825C27.6173 15.9187 27.5355 15.8366 27.472 15.741ZM3.672 12.281C3.47899 12.1506 3.34542 11.9491 3.30046 11.7205C3.25549 11.4919 3.30278 11.2548 3.432 11.061L4.116 10.036C4.17949 9.94029 4.26132 9.85809 4.35675 9.79415C4.45217 9.73022 4.55932 9.68581 4.672 9.6635C4.78468 9.64119 4.90066 9.64141 5.01325 9.66415C5.12584 9.68689 5.23282 9.73171 5.328 9.79601L10.858 13.521C11.26 13.791 11.368 14.337 11.098 14.741L10.413 15.766C10.3495 15.8616 10.2677 15.9437 10.1724 16.0075C10.077 16.0714 9.97 16.1157 9.85744 16.138C9.74488 16.1603 9.62902 16.1602 9.51653 16.1375C9.40404 16.1148 9.29715 16.0702 9.202 16.006L3.672 12.281ZM18.912 9.66601C17.702 9.66601 16.721 10.653 16.721 11.87C16.721 13.087 17.701 14.073 18.911 14.073C20.122 14.073 21.103 13.087 21.103 11.87C21.1039 11.5814 21.048 11.2955 20.9383 11.0285C20.8287 10.7615 20.6676 10.5188 20.4641 10.3141C20.2606 10.1094 20.0188 9.94683 19.7525 9.83563C19.4862 9.72443 19.2006 9.66679 18.912 9.66601ZM18.912 17.224C15.972 17.224 13.588 14.827 13.588 11.87C13.588 8.91301 15.972 6.51601 18.912 6.51601C21.852 6.51601 24.235 8.91301 24.235 11.87C24.235 14.827 21.852 17.224 18.912 17.224Z" fill="black"/>
<path fill-rule="evenodd" clip-rule="evenodd" d="M18.287 4.563H19.537C19.7692 4.56221 19.9915 4.46929 20.1552 4.30466C20.3189 4.14003 20.4105 3.91716 20.41 3.685V0.878C20.4105 0.645843 20.3189 0.422969 20.1552 0.258341C19.9915 0.0937123 19.7692 0.000794452 19.537 0L18.287 0C18.0548 0.000794452 17.8325 0.0937123 17.6688 0.258341C17.5051 0.422969 17.4135 0.645843 17.414 0.878V3.685C17.414 4.17 17.804 4.563 18.287 4.563Z" fill="#DA2C6C"/>
<path fill-rule="evenodd" clip-rule="evenodd" d="M11.072 26.774L10.388 25.749C10.3245 25.6534 10.2427 25.5713 10.1474 25.5075C10.052 25.4436 9.945 25.3993 9.83244 25.377C9.71988 25.3547 9.60402 25.3549 9.49153 25.3775C9.37904 25.4002 9.27214 25.4449 9.177 25.509L3.646 29.234C3.45299 29.3644 3.31942 29.5659 3.27446 29.7945C3.22949 30.0231 3.27678 30.2602 3.406 30.454L4.092 31.479C4.15549 31.5744 4.23721 31.6564 4.33248 31.7202C4.42774 31.7839 4.53467 31.8282 4.64711 31.8505C4.75955 31.8728 4.87529 31.8727 4.98768 31.8501C5.10006 31.8275 5.20688 31.783 5.302 31.719L10.833 27.993C11.0259 27.8627 11.1595 27.6614 11.2045 27.433C11.2494 27.2046 11.2022 26.9677 11.073 26.774" fill="#00B4DF"/>
<path fill-rule="evenodd" clip-rule="evenodd" d="M34.245 29.278L28.713 25.552C28.6179 25.488 28.5111 25.4435 28.3987 25.4209C28.2863 25.3983 28.1706 25.3982 28.0581 25.4205C27.9457 25.4428 27.8387 25.4871 27.7435 25.5508C27.6482 25.6146 27.5665 25.6966 27.503 25.792L26.818 26.819C26.6886 27.0126 26.6412 27.2496 26.6861 27.4781C26.7311 27.7066 26.8648 27.9079 27.058 28.038L32.588 31.763C32.6831 31.827 32.7899 31.8715 32.9023 31.8941C33.0147 31.9167 33.1304 31.9168 33.2429 31.8945C33.3553 31.8722 33.4623 31.8279 33.5575 31.7642C33.6528 31.7004 33.7345 31.6184 33.798 31.523L34.484 30.498C34.6133 30.3043 34.6608 30.0673 34.616 29.8387C34.5712 29.6102 34.4378 29.4086 34.245 29.278Z" fill="#FBD020"/>
</svg>
