<svg width="500" height="500" viewBox="0 0 500 500" fill="none" xmlns="http://www.w3.org/2000/svg">
<rect width="500" height="500" fill="#333333"/>
<path d="M286.835 334H234.585L184.585 199.75C186.252 212.917 187.502 224.583 188.335 234.75C189.335 244.75 189.835 256.667 189.835 270.5V334H153.335V160.75H204.335L255.585 295.25C251.918 272.417 250.085 250.917 250.085 230.75V160.75H286.835V334ZM332.856 293C339.023 293 344.273 295.25 348.606 299.75C353.106 304.083 355.356 309.333 355.356 315.5C355.356 321.833 353.106 327.25 348.606 331.75C344.273 336.083 339.023 338.25 332.856 338.25C326.523 338.25 321.106 336.083 316.606 331.75C312.273 327.25 310.106 321.833 310.106 315.5C310.106 309.333 312.273 304.083 316.606 299.75C321.106 295.25 326.523 293 332.856 293Z" fill="white"/>
</svg>
