<svg width="79" height="79" viewBox="0 0 79 79" fill="none" xmlns="http://www.w3.org/2000/svg">
<path d="M78.8955 39.4477C78.8955 61.2341 61.2341 78.8955 39.4477 78.8955C17.6614 78.8955 0 61.2341 0 39.4477C0 17.6614 17.6614 0 39.4477 0C61.2341 0 78.8955 17.6614 78.8955 39.4477Z" fill="#6D0C9D"/>
<path fill-rule="evenodd" clip-rule="evenodd" d="M19.7239 21.6963C19.7239 20.6069 20.6069 19.7239 21.6963 19.7239H57.1992C58.2885 19.7239 59.1716 20.6069 59.1716 21.6963C59.1716 22.7856 58.2885 23.6687 57.1992 23.6687H51.2821V29.5858H57.1992C58.2885 29.5858 59.1716 30.4689 59.1716 31.5582C59.1716 32.6475 58.2885 33.5306 57.1992 33.5306H51.2821V57.1992C51.2821 58.2885 50.399 59.1716 49.3097 59.1716C48.2204 59.1716 47.3373 58.2885 47.3373 57.1992V51.766C44.6359 53.9315 41.2069 55.2268 37.4754 55.2268C28.7834 55.2268 21.733 48.1989 21.6964 39.5156L21.6963 39.4477C22.3773 39.4477 23.0382 39.3614 23.6687 39.1992C26.4411 38.4856 28.6237 36.303 29.3373 33.5306H21.6963C20.6069 33.5306 19.7239 32.6475 19.7239 31.5582C19.7239 30.4689 20.6069 29.5858 21.6963 29.5858H29.3373C28.6237 26.8134 26.4411 24.6308 23.6687 23.9172C23.0382 23.7549 22.3773 23.6687 21.6963 23.6687C20.6069 23.6687 19.7239 22.7856 19.7239 21.6963ZM30.5172 23.6687C32.3911 25.7624 33.5306 28.5272 33.5306 31.5582C33.5306 36.5547 30.4342 40.8279 26.0556 42.5638C27.4232 47.5879 32.0179 51.2821 37.4754 51.2821C41.5917 51.2821 45.2171 49.1805 47.3373 45.9917V23.6687H30.5172Z" fill="#FFE74C"/>
</svg>
